<svg width="36" height="36" viewBox="0 0 36 36" fill="none" xmlns="http://www.w3.org/2000/svg">
<path d="M20.7449 28.5C20.5208 28.5007 20.2994 28.4513 20.097 28.3552C19.8945 28.2592 19.7161 28.119 19.5749 27.945L12.3299 18.945C12.1093 18.6766 11.9887 18.3399 11.9887 17.9925C11.9887 17.645 12.1093 17.3084 12.3299 17.04L19.8299 8.03999C20.0845 7.73366 20.4504 7.54102 20.8471 7.50446C21.2437 7.46789 21.6386 7.59038 21.9449 7.84499C22.2513 8.09959 22.4439 8.46546 22.4805 8.8621C22.517 9.25874 22.3945 9.65366 22.1399 9.95999L15.4349 18L21.9149 26.04C22.0984 26.2602 22.2149 26.5283 22.2507 26.8126C22.2865 27.0969 22.2401 27.3856 22.1171 27.6443C21.994 27.9031 21.7993 28.1213 21.5562 28.2729C21.313 28.4245 21.0315 28.5033 20.7449 28.5V28.5Z" fill="#0F2944"/>
</svg>
